PathFileType	3	(X/Y/Z)	F:\ViconData\AntennenMessung\Messung1\Session1\ID05.trc
DataRate	CameraRate	NumFrames	NumMarkers	Units	OrigDataRate	OrigDataStartFrame	OrigNumFrames
120.0	120.0	4	70	mm	120.0	167	1328	
Frame#	Time	Ashort			Along			Atop			A4			Bshort			Blong			Btop			B4			Cshort			Clong			Ctop			C4			Dshort			Dlong			Dtop			D4			Eshort			Elong			Etop			E4			Fshort			Flong			Ftop			F4			Gshort			Glong			Gtop			G4			Hshort			Hlong			Htop			H4			I1			I2			I3			I4			I5			WandAshort			WandAlong			WandAtop			WandA4			WandA15			WandBshort			WandB4			WandB5			WandBtop			WandBlong			WandCshort			WandClong			WandCtop			WandC4			WandC5			Acenter			Aantenna			Bcenter			Bantenna			Ccenter			Cantenna			Dcenter			Dantenna			Ecenter			Eantenna			Fcenter			Fantenna			Gcenter			Gantenna			Hcenter			Hantenna			Icenter			Iantenna			
		X1	Y1	Z1	X2	Y2	Z2	X3	Y3	Z3	X4	Y4	Z4	X5	Y5	Z5	X6	Y6	Z6	X7	Y7	Z7	X8	Y8	Z8	X9	Y9	Z9	X10	Y10	Z10	X11	Y11	Z11	X12	Y12	Z12	X13	Y13	Z13	X14	Y14	Z14	X15	Y15	Z15	X16	Y16	Z16	X17	Y17	Z17	X18	Y18	Z18	X19	Y19	Z19	X20	Y20	Z20	X21	Y21	Z21	X22	Y22	Z22	X23	Y23	Z23	X24	Y24	Z24	X25	Y25	Z25	X26	Y26	Z26	X27	Y27	Z27	X28	Y28	Z28	X29	Y29	Z29	X30	Y30	Z30	X31	Y31	Z31	X32	Y32	Z32	X33	Y33	Z33	X34	Y34	Z34	X35	Y35	Z35	X36	Y36	Z36	X37	Y37	Z37	X38	Y38	Z38	X39	Y39	Z39	X40	Y40	Z40	X41	Y41	Z41	X42	Y42	Z42	X43	Y43	Z43	X44	Y44	Z44	X45	Y45	Z45	X46	Y46	Z46	X47	Y47	Z47	X48	Y48	Z48	X49	Y49	Z49	X50	Y50	Z50	X51	Y51	Z51	X52	Y52	Z52	X53	Y53	Z53	X54	Y54	Z54	X55	Y55	Z55	X56	Y56	Z56	X57	Y57	Z57	X58	Y58	Z58	X59	Y59	Z59	X60	Y60	Z60	X61	Y61	Z61	X62	Y62	Z62	X63	Y63	Z63	X64	Y64	Z64	X65	Y65	Z65	X66	Y66	Z66	X67	Y67	Z67	X68	Y68	Z68	X69	Y69	Z69	X70	Y70	Z70	
167	1.3833333	-1038.2758	214.46803	-1644.254	-1109.3065	203.5466	-1599.5854	-1063.5365	173.06744	-1625.8309	-1054.0225	262.022	-1634.9913	-1353.0291	234.96565	1003.9146	-1281.2681	227.09036	1052.3961	-1323.1361	194.03975	1020.8835	-1284.7003	287.87378	1052.8363	813.88354	187.71558	1209.6147	892.77307	178.99005	1178.811	844.35297	145.51157	1198.2471	860.33545	292.37488	1167.4158	1115.7229	209.44775	-1401.5963	1056.1891	194.00439	-1460.2513	1094.9879	162.20158	-1423.8903	1069.8684	238.57693	-1425.9331	-1204.4458	1685.9397	-1563.3411	-1129.1213	1688.2826	-1606.3311	-1173.1255	1724.3882	-1581.9823	-1133.51	1581.0143	-1603.5087	-1239.6932	1699.2543	1119.345	-1309.4092	1698.871	1071.8313	-1270.3156	1736.1465	1096.7058	-1244.6738	1593.9517	1106.536	988.84906	1664.2667	1162.3942	955.78833	1702.2963	1181.2247	922.65631	1662.1006	1215.0623	939.84357	1659.3344	1160.0514	999.18121	1668.5461	-1579.517	1058.7529	1669.9751	-1518.6895	1025.0537	1708.0226	-1551.1752	1059.2843	1672.1499	-1585.5828	-187.90305	1141.5708	506.1553	-185.54053	1144.1763	427.15311	-186.9951	1179.5918	475.00812	-224.20146	1141.3242	473.13257	-139.26091	1144.0175	474.82455																																														-1068.7258	209.78612	-1625.105	-1074.1821	248.39499	-1624.3418	-1321.807	231.53923	1025.0079	-1320.4341	270.28143	1029.2689	847.86322	183.95726	1196.3469	851.40503	222.74875	1194.4296	1088.7572	202.45271	-1428.1639	1082.8237	240.78328	-1432.2336	-1171.9176	1686.9513	-1581.9059	-1170.6598	1647.9718	-1581.8264	-1270.9996	1699.0822	1098.0085	-1271.719	1660.1128	1099.3783	953.45856	1704.976	1182.5515	972.83411	1731.946	1162.1014	1026.4714	1669.2007	-1551.6515	1027.8944	1630.2296	-1552.1298	-186.9352	1142.6381	473.79123	-186.87202	1103.6593	472.50769
168	1.3916667	-1038.2634	214.50755	-1644.2836	-1109.3252	203.48573	-1599.5817	-1063.6724	172.56781	-1625.5323	-1054.0093	262.02884	-1635.0247	-1352.9263	235.03113	1003.8719	-1281.2722	227.0544	1052.3729	-1322.9984	194.13303	1020.7922	-1284.6123	287.91412	1052.7697	813.97546	187.76671	1209.6677	892.81171	179.03806	1178.8992	844.64417	145.2188	1198.3433	860.39734	292.43582	1167.3855	1115.7166	209.43785	-1401.5973	1056.2034	194.03473	-1460.2496	1095.0972	162.31528	-1423.9091	1069.8599	238.59224	-1425.9753	-1204.4553	1685.9365	-1563.3397	-1129.1029	1688.2654	-1606.3093	-1173.111	1724.3844	-1581.9962	-1133.5187	1581.0226	-1603.5365	-1239.7039	1699.2618	1119.344	-1309.3652	1698.7599	1071.7822	-1270.3341	1736.1796	1096.7142	-1244.6666	1593.9769	1106.4961	988.89569	1664.3015	1162.3833	955.8949	1702.3367	1181.2986	922.69507	1662.1589	1215.0323	939.85248	1659.3545	1160.0624	999.17511	1668.5411	-1579.5278	1058.8794	1670.1492	-1518.6599	1025.0454	1708.0021	-1551.1763	1059.295	1672.1646	-1585.5942	-187.91035	1141.5668	506.17444	-185.53517	1144.1722	427.15033	-186.98938	1179.5905	475.00894	-224.23174	1141.359	473.14661	-139.29071	1143.9968	474.82422																																														-1069.0496	209.73253	-1624.9171	-1074.6335	248.32542	-1624.2784	-1321.6906	231.55388	1025.0145	-1320.337	270.28464	1029.3848	848.15027	183.98291	1196.3297	851.65863	222.77249	1194.3149	1088.8287	202.47874	-1428.0962	1082.8463	240.80945	-1432.0922	-1171.9011	1686.9426	-1581.9036	-1170.6416	1647.963	-1581.8073	-1270.951	1699.0366	1098.0098	-1271.5984	1660.0657	1099.369	953.5506	1705.0385	1182.6422	972.97034	1732.0256	1162.2568	1026.545	1669.2783	-1551.6244	1028.0543	1630.3102	-1552.0753	-186.93704	1142.6343	473.79202	-186.88185	1103.6555	472.50851
169	1.4	-1038.2755	214.47595	-1644.2534	-1109.3246	203.57188	-1599.5818	-1063.5503	172.61526	-1625.618	-1054.1583	262.11407	-1635.0164	-1352.8654	235.44409	1003.8486	-1281.2637	227.03653	1052.3407	-1322.9901	194.15646	1020.767	-1284.5802	287.94843	1052.7716	813.84338	187.67632	1209.6434	892.77863	178.98177	1178.859	844.63287	145.04071	1198.4764	860.50812	292.37222	1167.3867	1115.7312	209.46423	-1401.5924	1056.1838	194.06076	-1460.287	1094.9819	162.18063	-1423.896	1069.8497	238.57834	-1425.9514	-1204.4458	1685.9316	-1563.3362	-1129.1113	1688.2356	-1606.1217	-1173.1234	1724.3965	-1581.9958	-1133.5212	1580.9733	-1603.4681	-1239.705	1699.2653	1119.343	-1309.4125	1698.8397	1071.8094	-1270.3123	1736.1448	1096.7073	-1244.707	1593.822	1106.5898	988.8902	1664.3268	1162.3951	955.71771	1702.3616	1181.1914	922.80676	1662.061	1215.0518	939.80487	1659.3362	1160.0354	999.1756	1668.547	-1579.5281	1058.8602	1670.1316	-1518.6682	1025.051	1708.0024	-1551.1632	1059.2905	1672.16	-1585.5902	-187.91945	1141.5624	506.16205	-185.53835	1144.1493	427.1543	-186.90034	1179.4928	475.00983	-224.24484	1141.3748	473.1312	-139.28288	1144.0066	474.81531																																														-1068.8745	209.77983	-1625.0144	-1074.4044	248.38069	-1624.3873	-1321.5017	231.76135	1025.0894	-1319.9696	270.47632	1029.5394	848.06409	183.90695	1196.2974	851.48846	222.69542	1194.1229	1088.7676	202.4894	-1428.1697	1082.8577	240.82413	-1432.2343	-1171.8831	1686.9276	-1581.8297	-1170.5929	1647.9492	-1581.6571	-1270.9791	1699.0742	1098.0171	-1271.6802	1660.1049	1099.394	953.48315	1704.9235	1182.4575	972.78815	1731.8972	1161.9457	1026.5448	1669.2736	-1551.6198	1028.048	1630.3053	-1552.0795	-186.94417	1142.6218	473.80118	-186.99049	1103.6428	472.52344
170	1.4083333	-1038.2679	214.45035	-1644.2527	-1109.3047	203.53781	-1599.5846	-1063.569	173.04437	-1625.804	-1053.9943	261.9968	-1634.999	-1353.1204	234.95732	1003.9744	-1281.344	227.08038	1052.4279	-1323.1367	194.02391	1020.8873	-1284.6378	287.81003	1052.8131	813.8988	187.70586	1209.5969	892.78412	179.02536	1178.8331	844.38019	145.3896	1198.3553	860.48218	292.34219	1167.5131	1115.7318	209.43179	-1401.5819	1056.197	194.04518	-1460.2728	1094.97	162.18146	-1423.8375	1069.8517	238.56398	-1425.9268	-1204.4585	1685.9406	-1563.3406	-1129.1072	1688.2611	-1606.3126	-1173.1154	1724.3871	-1581.9943	-1133.5505	1581.0098	-1603.5165	-1239.6522	1699.1981	1119.327	-1309.3936	1698.8159	1071.8057	-1270.2998	1736.1464	1096.7002	-1244.7266	1593.8414	1106.4939	988.81238	1664.2023	1162.3862	955.73401	1702.2698	1181.1669	922.79529	1662.0822	1215.0391	939.79785	1659.2926	1160.0535	999.1601	1668.5676	-1579.5607	1058.871	1670.144	-1518.665	1025.0416	1708.0104	-1551.176	1059.2823	1672.1697	-1585.5936	-187.89754	1141.5527	506.16318	-185.52271	1144.1499	427.13284	-186.98273	1179.5684	474.99915	-224.2117	1141.3345	473.13678	-139.0033	1144.0828	475.10745																																														-1068.756	209.7668	-1625.0815	-1074.2096	248.37616	-1624.3223	-1321.8527	231.52592	1025.0819	-1320.5266	270.26181	1029.4146	847.84662	183.97025	1196.3578	851.33209	222.76224	1194.3494	1088.7954	202.47015	-1428.1364	1082.9199	240.8074	-1432.2271	-1171.9098	1686.9429	-1581.9025	-1170.6549	1647.9631	-1581.807	-1270.9723	1699.0265	1097.9857	-1271.6783	1660.0562	1099.3353	953.49683	1704.8442	1182.437	972.83405	1731.7778	1161.903	1026.5372	1669.2904	-1551.6403	1028.0425	1630.3223	-1552.1074	-186.92462	1142.6166	473.7865	-186.86333	1103.6377	472.50729
